<?xml version="1.0" encoding="UTF-8" standalone="no"?>
<svg
   xmlns:dc="http://purl.org/dc/elements/1.1/"
   xmlns:cc="http://creativecommons.org/ns#"
   xmlns:rdf="http://www.w3.org/1999/02/22-rdf-syntax-ns#"
   xmlns:svg="http://www.w3.org/2000/svg"
   xmlns="http://www.w3.org/2000/svg"
   xmlns:sodipodi="http://sodipodi.sourceforge.net/DTD/sodipodi-0.dtd"
   xmlns:inkscape="http://www.inkscape.org/namespaces/inkscape"
   width="177.86613"
   height="57.861927"
   viewBox="0 0 47.060414 15.309304"
   version="1.1"
   id="svg16"
   inkscape:version="1.0.1 (c497b03c, 2020-09-10)"
   sodipodi:docname="alfa.svg">
  <defs
     id="defs10" />
  <sodipodi:namedview
     id="base"
     pagecolor="#00ffff"
     bordercolor="#666666"
     borderopacity="1.0"
     inkscape:pageopacity="0"
     inkscape:pageshadow="2"
     inkscape:zoom="1.3821594"
     inkscape:cx="176.44589"
     inkscape:cy="103.70857"
     inkscape:document-units="px"
     inkscape:current-layer="layer1"
     inkscape:document-rotation="0"
     showgrid="false"
     units="px"
     lock-margins="true"
     fit-margin-top="0.5"
     fit-margin-left="0.5"
     fit-margin-right="0.5"
     fit-margin-bottom="0.5"
     inkscape:window-width="1440"
     inkscape:window-height="872"
     inkscape:window-x="0"
     inkscape:window-y="28"
     inkscape:window-maximized="0" />
  <metadata
     id="metadata13">
    <rdf:RDF>
      <cc:Work
         rdf:about="">
        <dc:format>image/svg+xml</dc:format>
        <dc:type
           rdf:resource="http://purl.org/dc/dcmitype/StillImage" />
        <dc:title></dc:title>
      </cc:Work>
    </rdf:RDF>
  </metadata>
  <g
     inkscape:label="Layer 1"
     inkscape:groupmode="layer"
     id="layer1"
     transform="translate(-25.272895,-121.98681)">
    <g
       id="g20282"
       transform="matrix(1.231788,0,0,1.231788,-155.84717,63.321453)">
      <path
         style="fill:#1c3a85;fill-opacity:1;fill-rule:nonzero;stroke:none;stroke-width:0.352778"
         d="m 176.58908,49.96876 c -0.10611,-0.106109 -0.1819,-0.181901 -0.2136,-0.213596 -0.20532,-0.205328 -0.45199,-0.37896 -0.92604,-0.380339 h -0.01 c -0.47267,0.0014 -0.71934,0.175011 -0.92467,0.380339 -0.0661,0.06752 -0.32659,0.326595 -0.64767,0.647678 0.95498,-0.130914 1.86311,-0.276986 2.72162,-0.434082 m -18.83365,0.454753 c -0.33073,-0.330729 -0.59944,-0.599447 -0.66834,-0.668349 -0.20533,-0.205328 -0.452,-0.37896 -0.92605,-0.380339 h -0.008 c -0.47405,0.0014 -0.72072,0.175011 -0.92604,0.380339 -0.0317,0.03307 -0.11025,0.110243 -0.21911,0.219108 0.86128,0.162609 1.77767,0.314193 2.74781,0.449241 m 27.38024,-2.689931 v 0.202572 c -0.78824,0.28801 -3.4258,1.201649 -7.2788,1.981619 0.44511,0.445106 1.42076,1.422135 1.42076,1.422135 0,0 0.0372,0.03032 0.0372,0.08682 0,0.05788 -0.0372,0.08819 -0.0372,0.08819 l -0.48369,0.483691 c 0,0 -0.0303,0.03583 -0.0882,0.03583 -0.0565,0 -0.0868,-0.03583 -0.0868,-0.03583 0,0 -1.21956,-1.219564 -1.86724,-1.867241 -0.97152,0.179144 -2.00918,0.347265 -3.10472,0.491959 -0.6339,0.633898 -1.37529,1.375282 -1.37529,1.375282 0,0 -0.0303,0.03583 -0.0868,0.03583 -0.0579,0 -0.0882,-0.03583 -0.0882,-0.03583 l -0.48369,-0.483691 c 0,0 -0.0372,-0.03032 -0.0372,-0.08819 0,-0.0565 0.0372,-0.08682 0.0372,-0.08682 l 0.53468,-0.536057 c -1.36977,0.148828 -2.81533,0.259071 -4.32291,0.314193 v 2.931087 c 0,0 0.004,0.04685 -0.0358,0.08819 -0.04,0.03996 -0.0882,0.03583 -0.0882,0.03583 h -0.68489 c 0,0 -0.0469,0.0041 -0.0868,-0.03583 -0.0413,-0.03996 -0.0372,-0.08819 -0.0372,-0.08819 v -2.239312 c 0,-0.183279 0.01,-0.412033 0.0551,-0.665592 -0.41892,0.0096 -0.84198,0.01378 -1.26917,0.01378 -1.44281,0 -2.8236,-0.05374 -4.13136,-0.14745 v 0.915018 c 0,0.290766 0.051,0.588422 0.38447,0.923285 l 0.007,0.0069 c 0.33487,0.333485 0.6339,0.385851 0.92329,0.385851 h 3.17225 c 0,0 0.0482,-0.0041 0.0882,0.03583 0.04,0.03996 0.0372,0.08819 0.0372,0.08819 v 0.683507 c 0,0 0.003,0.04823 -0.0372,0.08819 -0.04,0.03996 -0.0882,0.03583 -0.0882,0.03583 h -2.23794 c -0.53192,0 -1.42351,-0.06477 -2.26963,-0.905371 l -0.005,-0.0069 c -0.84061,-0.844738 -0.90676,-1.736329 -0.90676,-2.268251 v -0.0565 c -0.38585,-0.03307 -0.76618,-0.07028 -1.13687,-0.110243 l 0.51262,0.514008 c 0,0 0.0372,0.03032 0.0372,0.08682 0,0.05788 -0.0372,0.08819 -0.0372,0.08819 l -0.48369,0.483691 c 0,0 -0.0303,0.03583 -0.0882,0.03583 -0.0565,0 -0.0868,-0.03583 -0.0868,-0.03583 0,0 -0.72484,-0.724847 -1.35323,-1.353233 -1.12999,-0.150206 -2.17868,-0.323839 -3.13504,-0.50574 -0.64905,0.649056 -1.85897,1.858973 -1.85897,1.858973 0,0 -0.0303,0.03583 -0.0868,0.03583 -0.0579,0 -0.0882,-0.03583 -0.0882,-0.03583 l -0.48369,-0.483691 c 0,0 -0.0372,-0.03032 -0.0372,-0.08819 0,-0.0565 0.0372,-0.08682 0.0372,-0.08682 l 1.41938,-1.420757 c -0.66146,-0.14056 -1.26918,-0.28112 -1.81764,-0.417545 -2.36333,-0.588423 -4.02387,-1.183735 -4.78041,-1.474502 V 47.82177 c 0.88746,0.344509 3.27284,1.200271 6.76341,1.933388 0.3762,-0.376205 1.05282,-0.959115 2.24345,-0.961871 h 0.008 c 1.19338,0.0028 1.87,0.587044 2.24482,0.963249 0.13781,0.136425 0.50712,0.507118 0.85577,0.854383 0.44097,0.04961 0.89296,0.09508 1.35185,0.135048 V 48.75333 c 0,0 -0.004,-0.04823 0.0358,-0.08819 0.0413,-0.03996 0.0882,-0.03583 0.0882,-0.03583 h 0.68488 c 0,0 0.0469,-0.0041 0.0868,0.03721 0.0413,0.03996 0.0372,0.08682 0.0372,0.08682 v 2.067057 c 1.31326,0.09509 2.69268,0.148828 4.13135,0.148828 0.44097,0 0.87644,-0.0055 1.30914,-0.01516 0.10611,-0.43546 0.33348,-0.931554 0.81166,-1.412489 l 0.007,-0.0055 c 0.84474,-0.841981 1.73633,-0.906749 2.26825,-0.906749 h 2.23932 c 0,0 0.0469,-0.0041 0.0882,0.03583 0.04,0.03996 0.0358,0.0882 0.0358,0.0882 v 0.683507 c 0,0 0.004,0.04823 -0.0372,0.08819 -0.04,0.03996 -0.0868,0.03583 -0.0868,0.03583 h -3.17363 c -0.28938,0 -0.58704,0.05236 -0.9219,0.385851 l -0.007,0.0069 c -0.33349,0.334863 -0.38585,0.633898 -0.38585,0.923286 v 0.05237 c 1.5875,-0.05788 3.10472,-0.177767 4.5365,-0.338997 0.34175,-0.341754 0.70004,-0.700044 0.83509,-0.833713 0.37482,-0.376205 1.05144,-0.960493 2.24345,-0.963249 h 0.01 c 1.19338,0.0028 1.86862,0.587044 2.24482,0.963249 l 10e-4,0.0014 c 4.02663,-0.807531 6.74412,-1.766645 7.44003,-2.024339 m -9.78823,8.320601 c -0.25632,-0.256315 -0.45476,-0.454753 -0.51126,-0.511252 -0.20532,-0.205328 -0.45199,-0.378961 -0.92604,-0.380339 h -0.01 c -0.47267,0.0014 -0.72071,0.175011 -0.92466,0.380339 -0.0579,0.0565 -0.25632,0.254937 -0.51263,0.511252 z m -16.45516,0 c -0.25631,-0.256315 -0.45475,-0.454753 -0.51263,-0.511252 -0.20395,-0.205328 -0.452,-0.378961 -0.92466,-0.380339 h -0.01 c -0.47267,0.0014 -0.72072,0.175011 -0.92467,0.380339 -0.0579,0.0565 -0.25631,0.254937 -0.51263,0.511252 z m 20.54655,0 h 5.69681 v 0.188791 h -5.69681 v 1.456587 c 0,0.289388 0.051,0.587044 0.38447,0.923285 l 0.008,0.0055 c 0.33486,0.333485 0.63252,0.385851 0.92191,0.385851 h 3.17224 c 0,0 0.0482,-0.0041 0.0882,0.03583 0.04,0.04134 0.0372,0.08819 0.0372,0.08819 v 0.684885 c 0,0 0.004,0.04685 -0.0372,0.08682 -0.04,0.04134 -0.0868,0.03721 -0.0868,0.03721 h -2.23931 c -0.53193,0 -1.42352,-0.06615 -2.26825,-0.906749 l -0.007,-0.0069 c -0.84061,-0.844738 -0.90675,-1.736328 -0.90675,-2.268251 V 56.24297 h -1.65089 c 0.42995,0.429948 0.88332,0.883323 0.88332,0.883323 0,0 0.0372,0.03169 0.0372,0.08819 0,0.0565 -0.0372,0.08819 -0.0372,0.08819 l -0.48369,0.483691 c 0,0 -0.0317,0.03583 -0.0882,0.03583 -0.0565,0 -0.0882,-0.03721 -0.0882,-0.03721 l -1.54065,-1.542025 h -3.26319 c -0.66146,0.662837 -1.54203,1.542025 -1.54203,1.542025 0,0 -0.0303,0.03721 -0.0882,0.03721 -0.0565,0 -0.0882,-0.03583 -0.0882,-0.03583 l -0.48369,-0.483691 c 0,0 -0.0358,-0.03169 -0.0358,-0.08819 0,-0.0565 0.0358,-0.08819 0.0358,-0.08819 0,0 0.45338,-0.453375 0.88332,-0.883323 h -10.55577 c 0.42995,0.429948 0.88332,0.883323 0.88332,0.883323 0,0 0.0358,0.03169 0.0358,0.08819 0,0.0565 -0.0358,0.08819 -0.0358,0.08819 l -0.48369,0.483691 c 0,0 -0.0317,0.03583 -0.0882,0.03583 -0.0579,0 -0.0882,-0.03721 -0.0882,-0.03721 0,0 -0.88056,-0.879188 -1.54202,-1.542025 h -3.26182 c -0.66283,0.662837 -1.54202,1.542025 -1.54202,1.542025 0,0 -0.0317,0.03721 -0.0882,0.03721 -0.0565,0 -0.0882,-0.03583 -0.0882,-0.03583 l -0.48369,-0.483691 c 0,0 -0.0358,-0.03169 -0.0358,-0.08819 0,-0.0565 0.0358,-0.08819 0.0358,-0.08819 0,0 0.45337,-0.453375 0.88332,-0.883323 h -3.41478 v 1.456587 c 0,0.289388 0.0524,0.587044 0.38585,0.923285 l 0.007,0.0055 c 0.33624,0.333486 0.6339,0.385851 0.92329,0.385851 h 3.17224 c 0,0 0.0482,-0.0041 0.0882,0.03583 0.04,0.04134 0.0358,0.08819 0.0358,0.08819 v 0.684885 c 0,0 0.004,0.04685 -0.0358,0.08682 -0.04,0.04134 -0.0868,0.03721 -0.0868,0.03721 h -2.24069 c -0.53054,0 -1.42214,-0.06615 -2.26825,-0.906749 l -0.007,-0.0069 c -0.8406,-0.844737 -0.90537,-1.736328 -0.90537,-2.268251 v -0.522277 h -3.00826 V 56.05416 h 3.00826 v -1.528244 c 0,0 -0.004,-0.04685 0.0358,-0.08819 0.04,-0.03996 0.0882,-0.03583 0.0882,-0.03583 h 0.68489 c 0,0 0.0469,-0.0028 0.0868,0.03721 0.04,0.03996 0.0358,0.08819 0.0358,0.08819 v 1.526866 h 3.60357 c 0.22462,-0.223242 0.4203,-0.418924 0.51125,-0.511252 0.37621,-0.376205 1.05283,-0.959114 2.24483,-0.963249 h 0.01 c 1.192,0.0041 1.86862,0.587044 2.24482,0.963249 0.091,0.09233 0.28664,0.28801 0.51126,0.511252 h 10.93473 c 0.22324,-0.223242 0.41892,-0.418924 0.50988,-0.511252 0.3762,-0.376205 1.05282,-0.959114 2.24482,-0.963249 h 0.01 c 1.192,0.0041 1.86862,0.587044 2.24482,0.963249 0.091,0.09233 0.28802,0.28801 0.51126,0.511252 h 1.83968 v -1.528244 c 0,0 -0.004,-0.04685 0.0358,-0.08819 0.0413,-0.03996 0.0882,-0.03583 0.0882,-0.03583 h 0.68489 c 0,0 0.0469,-0.0028 0.0882,0.03721 0.04,0.03996 0.0358,0.08819 0.0358,0.08819 z m -9.89156,1.256771 c 0,0.05788 -0.0358,0.08819 -0.0358,0.08819 0,0 -1.29948,1.298112 -1.58336,1.583366 -0.37758,0.376205 -1.05282,0.960493 -2.2462,0.963249 h -0.008 c -1.19338,-0.0028 -1.87,-0.587044 -2.24482,-0.963249 -0.28526,-0.285254 -1.58337,-1.583366 -1.58337,-1.583366 0,0 -0.0372,-0.03032 -0.0372,-0.08819 0,-0.0565 0.0372,-0.08682 0.0372,-0.08682 l 0.48369,-0.483691 c 0,0 0.0303,-0.03721 0.0882,-0.03721 0.0565,0 0.0868,0.03721 0.0868,0.03721 0,0 2.03812,2.03674 2.24345,2.243446 0.20533,0.20395 0.452,0.378961 0.92604,0.380339 v -0.0014 h 0.008 v 0.0014 c 0.47404,-0.0014 0.72071,-0.176389 0.92604,-0.380339 0.2067,-0.206706 2.24345,-2.243446 2.24345,-2.243446 0,0 0.0303,-0.03721 0.0868,-0.03721 0.0579,0 0.0882,0.03721 0.0882,0.03721 l 0.48507,0.483691 c 0,0 0.0358,0.03032 0.0358,0.08682"
         id="path19571" />
    </g>
  </g>
</svg>
